<svg width="27" height="27" viewBox="0 0 27 27" fill="none" xmlns="http://www.w3.org/2000/svg">
<path fill-rule="evenodd" clip-rule="evenodd" d="M4.27224 0.712287H15.2764V0.760873H15.4244V0.809459L15.6218 0.858046L15.8685 1.14956L15.9672 1.19815C16.0243 1.27963 15.9678 1.30849 16.0659 1.39249C16.0823 1.60303 16.0988 1.81357 16.1152 2.02411H16.0659C16.0495 2.12129 16.033 2.21846 16.0166 2.31563L15.8685 2.4128V2.50998H15.8192L15.7205 2.65574H15.6218L15.5724 2.75291H15.4244L15.3751 2.85008H15.079C14.9582 2.95284 14.5486 2.89867 14.3388 2.89867H6.64084C5.92241 2.89867 4.59555 2.79037 4.07485 2.99584V3.04443H3.97616V3.09301L3.68009 3.19018L3.63074 3.28736H3.53205L3.38401 3.4817L3.08794 3.72463V3.8218L2.98924 3.87039V3.96756H2.9399L2.84121 4.25908H2.79186L2.74251 4.59918H2.69317V22.8676H2.74251L2.79186 23.2077H2.84121L2.9399 23.4992H2.98924V23.5964L3.08794 23.645V23.7421L3.38401 23.9851L3.53205 24.1794L3.72943 24.228L3.77878 24.3252C4.27382 24.5924 4.83744 24.5681 5.60458 24.5681H22.9743V24.5195L23.3197 24.4709V24.4224L23.6158 24.3252V24.2766H23.7145L23.7639 24.1794H23.8625L24.1093 23.8879L24.3067 23.7421V23.645L24.4054 23.5964V23.4992H24.4547L24.5534 23.2077H24.6027C24.6192 23.0943 24.6356 22.981 24.6521 22.8676H24.7014V13.5876C24.7014 12.7285 24.6301 11.902 25.1455 11.547H25.2442L25.2936 11.4498H25.4416V11.4013L26.0338 11.3527V11.4013H26.2312V11.4498C26.5373 11.5161 26.8313 11.8988 26.922 12.1786V20.9241C26.922 21.7774 26.982 22.7611 26.774 23.402V23.645H26.7246V23.7421H26.6753C26.6588 23.8555 26.6424 23.9689 26.6259 24.0823L26.5272 24.1308C26.5108 24.2118 26.4943 24.2928 26.4779 24.3738L26.3792 24.4224V24.5681L26.2805 24.6167C26.264 24.6815 26.2476 24.7463 26.2312 24.811L26.0831 24.9082V25.0054L25.9351 25.1026V25.1997L25.639 25.4427L25.3429 25.7828H25.2442L25.1455 25.9285H25.0469L24.9482 26.0743L24.7508 26.1229L24.7014 26.22H24.5534L24.504 26.3172H24.4054V26.3658H24.2573L24.208 26.463L23.8625 26.5116V26.5601H23.7639V26.6087H23.5171V26.6573C23.1049 26.7894 22.5677 26.7545 22.0368 26.7545H4.32158V26.7059H4.07485V26.6573H3.87747V26.6087H3.63074V26.5601H3.53205V26.5116L3.18663 26.463L3.13728 26.3658H2.98924V26.3172H2.89055L2.84121 26.22H2.69317L2.64382 26.1229L2.44644 26.0743L2.34775 25.9285H2.24906L2.15036 25.7828H2.05167L1.31148 25.0054V24.9082L1.16345 24.811L1.1141 24.6167L1.01541 24.5681V24.4224L0.916717 24.3738L0.867371 24.1308L0.768679 24.0823V23.9365H0.719333V23.7421L0.620642 23.6936L0.571296 23.2077C0.449313 22.8363 0.472604 22.305 0.472604 21.7987V4.50201H0.52195V4.25908H0.571296V4.06474H0.620642V3.8218H0.669987V3.72463H0.719333L0.768679 3.38453L0.867371 3.33594L1.01541 2.89867L1.1141 2.85008L1.16345 2.65574L1.31148 2.55856V2.46139L2.05167 1.68401H2.15036L2.24906 1.53825H2.34775L2.44644 1.39249L2.64382 1.34391L2.69317 1.24674L3.13728 1.10098L3.18663 1.0038L3.4827 0.955218V0.906632H3.58139V0.858046H3.87747V0.809459C4.03676 0.758833 4.16368 0.810383 4.27224 0.712287ZM24.356 9.26346V9.36063L24.208 9.40922L24.1586 9.50639L23.9119 9.70073L23.5665 10.0894L22.8263 10.7696L21.9874 11.6442L19.1747 14.365V14.4136L18.1878 15.3367C18.0365 15.4857 17.9296 15.7111 17.6943 15.774C17.6534 15.9402 17.3196 16.2666 17.1515 16.3085C17.1376 16.3807 17.1019 16.4471 17.0491 16.4991C16.9963 16.5511 16.9288 16.5863 16.8554 16.6V16.6971H16.7567L16.2139 17.2802H16.1152L16.0166 17.4259H15.9179L15.8192 17.5717H15.7205L15.6711 17.6689H15.5231L15.4738 17.766L15.227 17.8146L15.1777 17.9118L14.8816 17.9604V18.009H14.7829V18.0576H14.5855V18.1061H14.4375V18.1547H14.2401V18.2033H13.796C13.2675 18.3484 12.4111 18.2097 11.8715 18.2033C10.6198 18.1887 9.51696 18.4122 9.15748 17.4745C8.98235 17.0178 9.19844 16.3559 9.10813 15.8226C8.92304 14.7294 9.05513 13.0726 9.40421 12.3244H9.45355V12.2272L9.55225 12.1786V12.0329L9.65094 11.9843C9.66739 11.9195 9.68383 11.8547 9.70028 11.7899L9.79897 11.7414V11.6442H9.84832C9.86477 11.5956 9.88122 11.547 9.89767 11.4984L9.99636 11.4498V11.3527L12.1676 9.26346L14.3388 7.07708L17.645 3.87039L18.8786 2.60715L19.3721 2.16987C19.6761 1.87044 19.9539 1.48967 20.3096 1.24674H20.4083L20.4577 1.14956L20.6551 1.10098L20.7044 1.0038L21.0005 0.955218V0.906632H21.0992V0.858046H21.2966V0.809459H21.4939V0.760873H21.7407V0.712287C21.9958 0.640137 22.422 0.759513 22.5796 0.809459L22.9743 0.858046V0.906632H23.1224V0.955218H23.2211V1.0038H23.3691L23.4184 1.10098L23.6158 1.14956L23.6652 1.24674H23.7639C24.0826 1.46474 24.3302 1.80446 24.6027 2.0727L25.6883 3.09301L25.8857 3.33594L26.3298 3.72463V3.8218L26.4779 3.91898C26.4943 3.98376 26.5108 4.04854 26.5272 4.11332L26.6259 4.16191V4.25908H26.6753V4.40484L26.774 4.45342C26.7904 4.56679 26.8069 4.68016 26.8233 4.79353H26.8727V4.93929H26.922C26.9384 5.19841 26.9549 5.45754 26.9713 5.71667H26.922V6.20253H26.8727C26.8398 6.34829 26.8069 6.49405 26.774 6.6398H26.7246C26.7082 6.70459 26.6917 6.76937 26.6753 6.83415H26.6259V6.93132L26.5272 6.97991V7.12567L26.3792 7.22284C26.1064 7.60439 25.7694 7.8718 25.4416 8.19456L24.9482 8.72901L24.6521 8.97194C24.5337 9.10045 24.5629 9.20856 24.356 9.26346ZM21.0992 4.50201H21.1979C21.2316 4.64422 21.2528 4.66113 21.3953 4.69636V4.79353C21.5003 4.85241 21.5027 4.90294 21.642 4.93929V5.03646C21.747 5.09535 21.7494 5.14588 21.8887 5.18222C21.9244 5.31641 21.9025 5.29091 22.0368 5.32798V5.42515C22.1418 5.48404 22.1442 5.53456 22.2835 5.57091V5.66808L22.6289 5.91101V6.00818C22.7753 6.0489 22.8228 6.12134 22.925 6.20253V6.25111H23.0237V6.2997H23.1224V6.34829H23.2704V6.39687C23.5677 6.49006 24.1668 6.34046 24.3067 6.25111V6.20253C24.3622 6.153 24.4305 6.11939 24.504 6.10536C24.5184 6.03294 24.5525 5.96574 24.6027 5.91101H24.6521V5.81384H24.7014V5.27939C24.5847 5.19464 24.4983 5.07554 24.4547 4.93929C24.3184 4.90416 24.3443 4.92573 24.3067 4.79353C24.1704 4.7584 24.1963 4.77997 24.1586 4.64777C24.0223 4.61264 24.0482 4.63421 24.0106 4.50201C23.8743 4.46688 23.9002 4.48846 23.8625 4.35625H23.7639C23.7282 4.22206 23.7501 4.24757 23.6158 4.21049V4.11332C23.4795 4.07819 23.5054 4.09977 23.4678 3.96756H23.3691C23.3334 3.83337 23.3553 3.85888 23.2211 3.8218V3.72463C23.0848 3.6895 23.1107 3.71108 23.073 3.57887C22.9367 3.54375 22.9626 3.56532 22.925 3.43311C22.7887 3.39799 22.8146 3.41956 22.7769 3.28736H22.6782C22.6235 3.0884 22.6536 3.23255 22.5302 3.1416L22.4315 2.99584C22.2655 2.88472 22.0273 2.89138 21.7407 2.89867C21.66 3.01576 21.7022 2.92913 21.5926 2.99584V3.04443H21.4939L20.9018 3.67605L20.6551 3.87039V4.06474C20.8122 4.14564 20.9475 4.26223 21.0498 4.40484H21.0992V4.50201ZM18.928 5.57091C18.8847 5.74276 18.4113 6.20739 18.2371 6.25111C18.2014 6.38531 18.2234 6.3598 18.0891 6.39687C18.0534 6.53107 18.0753 6.50556 17.941 6.54263V6.6398H17.8917L17.645 6.93132H17.5463V7.02849H17.4969L17.2502 7.32001H17.1515C17.1158 7.45421 17.1377 7.4287 17.0035 7.46577C16.9678 7.59996 16.9897 7.57446 16.8554 7.61153V7.7087L16.7074 7.75729V7.80587C16.62 7.88278 16.5983 7.86238 16.5594 8.00022H16.4607C16.3393 8.20336 16.0849 8.2861 16.0166 8.53467H15.9179L15.5724 8.92336L15.4738 8.97194V9.06911L15.2764 9.16629L14.6842 9.79791C14.5328 9.94697 14.3043 10.0521 14.2401 10.2838H14.1414C13.9922 10.5367 13.7057 10.7128 13.4999 10.9154L12.3156 12.13L11.8715 12.5187V12.6159L11.6248 12.8103C11.6083 12.875 11.5919 12.9398 11.5754 13.0046L11.4767 13.0532C11.1425 13.671 11.281 15.0909 11.2794 16.0169C11.4811 16.0898 11.8398 16.0655 12.1182 16.0655H13.6973V16.0169L14.0427 15.9684V15.9198H14.1908V15.8712L14.3881 15.8226V15.774H14.4868L14.5362 15.6768H14.6349L14.7336 15.5311H14.8323L15.5724 14.7537L17.1515 13.2475L17.9904 12.373H18.0891C18.1248 12.2388 18.1028 12.2643 18.2371 12.2272V12.13C18.3734 12.0949 18.3475 12.1165 18.3852 11.9843C18.5215 11.9492 18.4955 11.9707 18.5332 11.8385C18.6695 11.8034 18.6436 11.825 18.6812 11.6928H18.7799C18.9208 11.4577 19.1804 11.2985 19.3721 11.1097L20.7538 9.70073L20.8525 9.40922H20.9018L20.9511 9.21487H21.0005C21.054 9.08218 21.1683 8.31224 21.0992 8.09739H21.0498V7.95163H21.0005V7.7087L20.9018 7.66011L20.8525 7.41718L20.7538 7.3686L20.7044 7.17425H20.6551C20.5728 7.07426 20.498 7.0267 20.4577 6.88274H20.359V6.78556L19.4214 5.91101C19.2632 5.75554 19.2359 5.59122 18.928 5.57091Z" fill="#55B297"/>
</svg>
