<svg width="34" height="35" viewBox="0 0 34 35" fill="none" xmlns="http://www.w3.org/2000/svg">
<path d="M33.125 17.5C33.125 19.3285 31.641 20.8125 29.8125 20.8125H3.3125C1.484 20.8125 0 19.3285 0 17.5C0 15.6715 1.484 14.1875 3.3125 14.1875H29.8125C31.641 14.1875 33.125 15.6715 33.125 17.5Z" fill="white"/>
<path d="M33.125 4.25C33.125 6.0785 31.641 7.5625 29.8125 7.5625H3.3125C1.484 7.5625 0 6.0785 0 4.25C0 2.4215 1.484 0.9375 3.3125 0.9375H29.8125C31.641 0.9375 33.125 2.4215 33.125 4.25Z" fill="white"/>
<path d="M33.125 30.75C33.125 32.5785 31.641 34.0625 29.8125 34.0625H3.3125C1.484 34.0625 0 32.5785 0 30.75C0 28.9215 1.484 27.4375 3.3125 27.4375H29.8125C31.641 27.4375 33.125 28.9215 33.125 30.75Z" fill="white"/>
</svg>
