<svg width="62" height="76" viewBox="0 0 62 76" fill="none" xmlns="http://www.w3.org/2000/svg">
<rect x="8" y="49" width="44" height="11" fill="#1A1A1A"/>
<rect x="10" y="27" width="42" height="27" fill="#1A1A1A"/>
<rect x="13" y="21" width="36" height="24" fill="#1A1A1A"/>
<rect x="16" y="14" width="30" height="26" fill="#1A1A1A"/>
<rect x="22" y="11" width="19" height="26" fill="#1A1A1A"/>
<path fill-rule="evenodd" clip-rule="evenodd" d="M33.7867 6.57689L35.7032 6.86141V6.95625L37.3322 7.24077V7.33561H37.6196V7.43045H38.0029V7.52529H38.1946V7.62013H38.5779V7.71497H38.7695V7.80981H39.057V7.90465H39.2486V7.99949H39.5361V8.09433H39.7278V8.18917H40.0152V8.28401L40.3985 8.37885V8.47369H40.686L40.7818 8.66337H41.0693L41.1651 8.85305H41.4526L41.5484 9.04274H41.7401V9.13758H41.9317V9.23242H42.1233V9.32726H42.315L42.4108 9.51694L42.9858 9.70662V9.80146L43.2732 9.8963L43.3691 10.086H43.5607L43.6565 10.2757H43.8482L44.0398 10.5602H44.2315L44.3273 10.7499H44.5189L44.8064 11.1292H44.9981L45.1897 11.4137H45.3814L45.8605 11.9828H46.0521L46.9145 12.9312L47.8728 13.7847V13.9744L48.4477 14.4486V14.6383L48.6394 14.7332L48.7352 15.0177L49.1185 15.3022V15.4919L49.3101 15.5867V15.7764L49.5976 15.9661V16.1558L49.7892 16.2506C49.8212 16.3454 49.8531 16.4403 49.8851 16.5351H49.9809V16.7248L50.1725 16.8196C50.2364 17.0093 50.3003 17.199 50.3642 17.3887L50.5558 17.4835C50.5878 17.61 50.6197 17.7364 50.6517 17.8629L50.8433 17.9577V18.2422L51.0349 18.3371V18.6216L51.2266 18.7164V19.001L51.4182 19.0958V19.3803H51.5141C51.546 19.5068 51.5779 19.6332 51.6099 19.7597H51.7057C51.7377 19.9178 51.7696 20.0758 51.8015 20.2339H51.8974V20.5184H51.9932V20.7081H52.089V20.9926H52.1848V21.1823H52.2807V21.5617H52.3765V21.7513H52.4723V22.1307H52.5681V22.4152H52.664C52.6959 22.6365 52.7278 22.8578 52.7598 23.0791H52.8556V23.5533H52.9514C52.9834 23.8378 53.0153 24.1223 53.0472 24.4069H53.1431C53.175 24.7862 53.207 25.1656 53.2389 25.545H53.3347V26.4934H53.4305V27.4418H53.5264V42.142C53.5264 44.0217 53.4639 45.9129 53.9097 47.3582C53.9416 47.706 53.9735 48.0537 54.0055 48.4015H54.1013V48.686H54.1971V49.1602H54.293C54.3249 49.3815 54.3568 49.6028 54.3888 49.8241H54.4846C54.5165 50.0454 54.5485 50.2667 54.5804 50.488H54.6762V50.7725H54.7721V51.057H54.8679V51.3415H54.9637C54.9957 51.5312 55.0276 51.7209 55.0595 51.9106H55.1554V52.1002H55.2512V52.3848H55.347C55.379 52.5428 55.4109 52.7009 55.4428 52.859H55.5387V53.0486H55.6345V53.3332H55.7303C55.7942 53.5228 55.8581 53.7125 55.922 53.9022H56.0178V54.0919H56.1136V54.3764L56.3052 54.4712V54.7558L56.4969 54.8506C56.5608 55.0403 56.6247 55.23 56.6885 55.4196L56.8802 55.5145C56.9121 55.6409 56.9441 55.7674 56.976 55.8938L57.1677 55.9887V56.1784L57.3593 56.2732V56.4629L57.551 56.5577V56.7474L57.7426 56.8423V57.0319L58.1259 57.3165V57.5061L59.7549 59.2133H59.9465L60.1382 59.4978H60.3298C60.3618 59.561 60.3937 59.6242 60.4257 59.6875H60.6173L60.809 59.972H61.0006L61.2881 60.3513H61.3839V60.541L61.5756 60.6359C61.7331 60.8829 62.1276 62.0975 61.9588 62.6275H61.863V62.912H61.7672V63.2914L61.5756 63.3862C61.5436 63.5127 61.5117 63.6391 61.4797 63.7656L61.0006 64.145L60.809 64.4295L60.4257 64.5243C60.3937 64.5875 60.3618 64.6508 60.3298 64.714H60.0424V64.8088H59.7549V64.9037C59.1578 65.0908 57.9487 64.6875 57.6468 64.5243V64.4295H57.4551C57.4232 64.3663 57.3913 64.303 57.3593 64.2398H57.1677L56.976 63.9553H56.7844C56.7524 63.892 56.7205 63.8288 56.6885 63.7656L56.4011 63.6708L56.0178 63.1966H55.8261L55.347 62.6275L54.3888 61.7739V61.5843L53.9097 61.2049V61.0152L53.718 60.9204V60.8255L53.5264 60.7307V60.541L53.2389 60.3513V60.1617L53.0472 60.0668V59.8771L52.8556 59.7823V59.5926L52.664 59.4978V59.3081L52.4723 59.2133V59.0236L52.2807 58.9287C52.2487 58.8023 52.2168 58.6758 52.1848 58.5494L51.9932 58.4545C51.9293 58.2649 51.8654 58.0752 51.8015 57.8855L51.6099 57.7907V57.601H51.5141V57.4113H51.4182V57.2216H51.3224V57.0319H51.2266V56.8423H51.1308V56.6526H51.0349V56.4629H50.9391V56.2732H50.8433C50.7794 56.0835 50.7155 55.8939 50.6517 55.7042H50.5558L49.9809 53.997H49.8851V53.8074H49.7892V53.5228H49.6934V53.2383H49.5976V52.9538H49.5018V52.6693H49.4059V52.4796H49.3101V52.1002H49.2143V51.8157H49.1185C49.0865 51.5944 49.0546 51.3731 49.0227 51.1518H48.9268V50.7725H48.831C48.7991 50.5196 48.7671 50.2667 48.7352 50.0137H48.6394C48.6074 49.7292 48.5755 49.4447 48.5435 49.1602H48.4477V48.5911H48.3519V48.2118H48.2561V47.4531H48.1602V46.884H48.0644V45.8408H47.9686V44.8924H47.8728V30.5715C47.8728 29.1883 48.0004 27.4919 47.6811 26.3985C47.6492 25.9875 47.6172 25.5766 47.5853 25.1656H47.4895V24.7862H47.3937V24.4069H47.2978V24.1223H47.202V23.6481H47.1062V23.4585H47.0104V23.0791H46.9145V22.8894H46.8187V22.6049H46.7229V22.4152H46.6271V22.1307H46.5312L46.4354 21.7513H46.3396V21.4668H46.2438V21.2771H46.1479V21.0875L45.9563 20.9926V20.7081L45.7646 20.6133L45.573 20.0442L45.3814 19.9494V19.7597H45.2855V19.57L45.0939 19.4752V19.2855L44.9022 19.1906V19.001L44.6148 18.8113V18.6216L44.4231 18.5268L44.3273 18.2422L43.8482 17.8629V17.6732L43.2732 17.199L42.1233 15.9661H41.9317L41.5484 15.4919H41.3568L41.1651 15.2074H40.9735L40.7818 14.9228H40.5902L40.4943 14.7332H40.3027L40.2069 14.5435L39.8236 14.4486L39.7278 14.259L39.1528 14.0693L39.057 13.8796L38.6737 13.7847V13.6899L38.2904 13.5951V13.5002H38.0029V13.4054L37.6196 13.3105V13.2157H37.3322V13.1209H37.1405V13.026H36.853V12.9312H36.6614V12.8363H36.2781V12.7415H35.9906V12.6467H35.7032V12.5518H35.3199V12.457H34.9366V12.3621H34.4575V12.2673H33.9783V12.1725H33.2117C31.0136 11.5582 27.3599 12.2067 25.7375 12.8363H25.3542V12.9312H25.1626V13.026H24.8751V13.1209H24.6834V13.2157H24.396V13.3105L24.0127 13.4054V13.5002H23.7252V13.5951L23.3419 13.6899V13.7847L22.9586 13.8796C22.9267 13.9428 22.8947 14.006 22.8628 14.0693H22.6711V14.1641H22.4795V14.259H22.2878V14.3538H22.0962V14.4486L21.8087 14.5435C21.7768 14.6067 21.7448 14.6699 21.7129 14.7332H21.5213V14.828L21.2338 14.9228C21.2018 14.9861 21.1699 15.0493 21.138 15.1125H20.9463C20.9144 15.1757 20.8824 15.239 20.8505 15.3022L20.563 15.397L20.2756 15.7764H20.0839L19.3173 16.63H19.1257C19.0937 16.6932 19.0618 16.7564 19.0298 16.8196L18.6466 17.1042V17.2938L17.9758 17.8629V18.0526L17.5925 18.3371C17.5606 18.4319 17.5286 18.5268 17.4967 18.6216L17.305 18.7164V18.9061L17.1134 19.001C17.0814 19.0958 17.0495 19.1906 17.0175 19.2855H16.9217V19.4752L16.7301 19.57V19.7597L16.5384 19.8545C16.5065 19.981 16.4745 20.1074 16.4426 20.2339L16.251 20.3287C16.1871 20.5184 16.1232 20.7081 16.0593 20.8978H15.9635V21.0875H15.8677V21.2771H15.7718C15.708 21.4668 15.6441 21.6565 15.5802 21.8462H15.4844C15.4524 22.0042 15.4205 22.1623 15.3885 22.3204H15.2927V22.5101H15.1969C15.165 22.6997 15.133 22.8894 15.1011 23.0791H15.0053V23.3636H14.9094V23.5533H14.8136V24.0275H14.7178V24.2172H14.622V24.6914H14.5261V25.0707H14.4303V25.6398H14.3345V26.0192H14.2387V26.8727H14.1428V39.771C14.1428 40.9815 14.3354 42.8386 14.047 43.8491C14.0151 44.8291 13.9831 45.8092 13.9512 46.7892H13.8554V47.3582H13.7595V48.1169H13.6637V48.5911H13.5679V49.1602H13.4721C13.4401 49.4447 13.4082 49.7292 13.3762 50.0137H13.2804C13.2485 50.2667 13.2165 50.5196 13.1846 50.7725H13.0888V51.1518H12.993C12.961 51.3731 12.9291 51.5944 12.8971 51.8157H12.8013V52.1002H12.7055V52.4796H12.6097V52.6693H12.5138V53.0486H12.418V53.2383H12.3222V53.6177H12.2264V53.8074H12.1305C12.0986 53.997 12.0667 54.1867 12.0347 54.3764H11.9389C11.907 54.5345 11.875 54.6925 11.8431 54.8506H11.7472V55.0403H11.6514V55.3248L11.4598 55.4196V55.7042H11.364V55.8938H11.2681L11.1723 56.2732H11.0765L10.789 57.1268L10.5974 57.2216V57.5061L10.4057 57.601L10.2141 58.17L10.0224 58.2649V58.4545L9.83078 58.5494L9.73495 58.9287L9.5433 59.0236L9.44748 59.3081H46.6271V59.4029H47.202V59.4978H47.4895V59.5926L47.8728 59.6875V59.7823H48.0644L48.2561 60.0668H48.4477L48.5435 60.3513L48.831 60.541L48.9268 60.9204L49.1185 61.0152V61.3946H49.2143V61.6791H49.3101C49.6055 62.6172 48.5714 64.1564 48.1602 64.4295C47.3553 64.9644 46.1581 64.9037 44.8064 64.9037H5.13542C3.3116 64.9037 1.95407 65.0554 0.919174 64.2398L0.823351 63.9553L0.440056 63.6708L0.344232 63.2914H0.248409V63.0069H0.152585V62.7224H0.0567614C-0.149547 62.0721 0.259428 60.9575 0.440056 60.6359H0.53588V60.4462L1.015 60.0668L1.11082 59.8771H1.30247L1.39829 59.6875H1.58994L1.78159 59.4029H1.97323L3.60224 57.8855V57.6958L3.79388 57.601L3.88971 57.3165L4.273 57.0319V56.8423L4.46465 56.7474V56.5577L4.75212 56.368V56.1784L4.94377 56.0835L5.13542 55.5145L5.32706 55.4196L5.42289 55.1351H5.51871V54.8506L5.71036 54.7558L5.99783 53.9022L6.18948 53.8074V53.5228H6.2853V53.3332H6.38112L6.47695 52.9538H6.57277V52.6693H6.66859V52.4796H6.76442L6.86024 51.9106H6.95607V51.7209H7.05189V51.3415H7.14771V51.1518H7.24354V50.7725H7.33936V50.5828H7.43518V50.2034H7.53101V49.9189H7.62683V49.5395H7.72265V49.1602C8.64314 46.4613 8.48924 42.7227 8.48924 39.1071V27.1572H8.58507V26.2088H8.68089V25.3553H8.77671V24.7862H8.87254L8.96836 23.8378H9.06419L9.16001 22.9843H9.25583L9.35166 22.3204H9.44748V22.0359H9.5433V21.6565H9.63913V21.4668H9.73495C9.79883 21.1823 9.86272 20.8978 9.9266 20.6133H10.0224C10.0544 20.4552 10.0863 20.2971 10.1182 20.1391H10.2141C10.246 20.0126 10.278 19.8861 10.3099 19.7597H10.4057V19.4752H10.5015C10.5654 19.2855 10.6293 19.0958 10.6932 18.9061H10.789V18.7164H10.8848V18.5268H10.9807V18.3371H11.0765V18.1474H11.1723V17.9577H11.2681V17.768L11.4598 17.6732C11.5237 17.4835 11.5875 17.2938 11.6514 17.1042L11.8431 17.0093V16.8196L12.0347 16.7248V16.5351L12.2264 16.4403C12.2583 16.3138 12.2902 16.1874 12.3222 16.0609L12.6097 15.8712V15.6816L12.8013 15.5867V15.397L13.0888 15.2074V15.0177L13.2804 14.9228V14.828L13.4721 14.7332V14.5435L13.9512 14.1641V13.9744L15.1011 12.9312L15.9635 11.9828L16.251 11.8879L16.7301 11.3189H16.9217L17.1134 11.0344H17.305L17.4967 10.7499H17.6883L17.88 10.4653H18.0716C18.1035 10.4021 18.1355 10.3389 18.1674 10.2757L18.4549 10.1808V10.086H18.6466C18.6785 10.0228 18.7104 9.95952 18.7424 9.8963H18.934C18.966 9.83307 18.9979 9.76984 19.0298 9.70662L19.3173 9.61178V9.51694H19.509V9.4221H19.7006V9.32726H19.8923V9.23242H20.0839L20.1797 9.04274H20.4672L20.563 8.85305H20.8505L20.9463 8.66337H21.138V8.56853H21.3296V8.47369H21.6171V8.37885L22.0004 8.28401V8.18917L22.4795 8.09433V7.99949H22.767V7.90465H22.9586V7.80981H23.2461V7.71497H23.4377V7.62013H23.821V7.52529H24.0127V7.43045H24.396V7.33561H24.6834V7.24077H25.0667V7.14593H25.45V7.05109H25.8333V6.95625H26.3124V6.86141H26.6957V6.76657H27.3665V6.67173H27.8456V6.57689H28.1331V6.48205C28.3067 6.28781 28.2289 5.69487 28.2289 5.34396V2.11939H28.3247C28.3567 1.96132 28.3886 1.80326 28.4206 1.64519H28.5164V1.36067L28.708 1.26583V1.07615L28.8997 0.981308L29.283 0.507106H29.4746L29.5704 0.317425L30.5287 0.0329044C31.1645 -0.080904 31.9872 0.121675 32.3493 0.317425V0.412266H32.541L32.6368 0.601946H32.8285L33.1159 0.981308H33.2117V1.17099L33.4034 1.26583V1.45551H33.4992V1.64519H33.595C33.627 1.83487 33.6589 2.02455 33.6909 2.21423H33.7867V6.57689ZM24.8751 70.4993H33.9783C35.7109 70.4993 37.3693 70.3555 38.3862 71.0683L38.482 71.258L38.8653 71.5425V71.7322L39.057 71.827V72.0167H39.1528V72.2064H39.2486V72.5857C39.3236 72.7956 39.5713 73.1927 39.4403 73.629C39.3732 73.854 39.2678 74.0463 39.2486 74.3877C39.0175 74.5424 39.1883 74.4614 39.057 74.6722H38.9612V74.8619L38.6737 75.0516V75.2413L38.3862 75.3361L38.1946 75.6206H38.0029V75.7155L37.6196 75.8103V75.9052H37.2363V76H24.6834V75.9052H24.396V75.8103H24.2043V75.7155H24.0127V75.6206H23.821C23.7891 75.5574 23.7571 75.4942 23.7252 75.431H23.5336L23.2461 75.0516H23.1503V74.8619L22.9586 74.7671C22.8022 74.5212 22.4054 73.3033 22.5753 72.7754H22.6711V72.4909H22.767V72.1115L22.9586 72.0167L23.0544 71.6373L23.2461 71.5425L23.7252 70.9735H23.9169V70.8786L24.3001 70.7838V70.6889L24.8751 70.5941V70.4993Z" fill="#1EC39C"/>
</svg>
