<svg width="57" height="57" viewBox="0 0 57 57" fill="none" xmlns="http://www.w3.org/2000/svg">
<circle cx="23" cy="23" r="23" fill="#1B1D1D"/>
<path d="M42.9134 42.9135C43.1452 42.6817 43.4112 42.5012 43.6886 42.3454L39.3642 38.0191C38.9937 37.6486 38.3914 37.6486 38.0209 38.0191C37.6504 38.3915 37.6504 38.9919 38.0209 39.3643L42.3358 43.6792C42.4992 43.4075 42.6816 43.1434 42.9134 42.9135Z" fill="#48E3BF"/>
<path d="M52.25 57C50.9827 57 49.7895 56.506 48.8908 55.6092L42.2408 48.9592C41.344 48.0605 40.85 46.8692 40.85 45.6C40.85 44.3308 41.344 43.1395 42.2408 42.2408C43.9622 40.5194 47.2359 40.5194 48.9573 42.2408L55.6073 48.8908C56.506 49.7895 57 50.9808 57 52.25C57 53.5192 56.506 54.7105 55.6092 55.6092C54.7124 56.5079 53.5173 57 52.25 57ZM45.6 42.788C44.8267 42.788 44.0933 43.0768 43.5841 43.586C43.0464 44.1237 42.75 44.84 42.75 45.6C42.75 46.36 43.0464 47.0763 43.5841 47.6159L50.2341 54.2659C51.3114 55.3413 53.1867 55.3413 54.264 54.2659C54.8036 53.7263 55.1 53.01 55.1 52.25C55.1 51.49 54.8036 50.7737 54.2659 50.2341L47.6159 43.5841C47.1067 43.0768 46.3733 42.788 45.6 42.788Z" fill="#48E3BF"/>
<path d="M22.8 40.755C22.2756 40.755 21.85 40.3294 21.85 39.805C21.85 39.2806 22.2756 38.855 22.8 38.855C29.9573 38.855 36.1665 34.2874 38.2527 27.4911C38.4066 26.9895 38.9386 26.7026 39.4402 26.8622C39.9418 27.0161 40.2249 27.5462 40.071 28.0478C37.7359 35.6497 30.7971 40.755 22.8 40.755Z" fill="#86CEBD"/>
<path d="M22.8 45.6C10.2277 45.6 0 35.3723 0 22.8C0 10.2277 10.2277 0 22.8 0C35.3723 0 45.6 10.2277 45.6 22.8C45.6 35.3723 35.3723 45.6 22.8 45.6ZM22.8 1.9C11.2765 1.9 1.9 11.2765 1.9 22.8C1.9 34.3235 11.2765 43.7 22.8 43.7C34.3235 43.7 43.7 34.3235 43.7 22.8C43.7 11.2765 34.3235 1.9 22.8 1.9Z" fill="#48E3BF"/>
<path d="M39.9 23.75C40.4247 23.75 40.85 23.3247 40.85 22.8C40.85 22.2754 40.4247 21.85 39.9 21.85C39.3753 21.85 38.95 22.2754 38.95 22.8C38.95 23.3247 39.3753 23.75 39.9 23.75Z" fill="#48E3BF"/>
</svg>
